<?xml version="1.0" ?><!DOCTYPE svg  PUBLIC '-//W3C//DTD SVG 1.1//EN'  'http://www.w3.org/Graphics/SVG/1.1/DTD/svg11.dtd'><svg style="enable-background:new 0 0 499.968 394.332;" version="1.1" viewBox="0 0 499.968 394.332" xml:space="preserve" xmlns="http://www.w3.org/2000/svg" xmlns:xlink="http://www.w3.org/1999/xlink"><g id="cloud-arrow-down"><g id="cloud-arrow-down_1_"><path d="M404.168,119.452c-4.322,0-8.527,0.365-12.7,0.923C387.832,53.29,332.279,0,264.272,0    c-55.51,0-97.805,40.418-115.279,89.932c-9.311-2.446-24.007-8.646-34.089-8.646C51.456,81.286,0,132.709,0,196.19    c0,63.437,51.456,114.882,114.904,114.882c15.607,0,39.721,0,67.577,0l51.81,68.844c1.717,2.424,11.059,14.417,26.506,14.417    c6.908,0,17.077-2.489,26.602-14.889l49.149-68.371c30.882,0,55.896,0,67.62,0c52.904,0,95.8-42.885,95.8-95.811    C499.968,162.337,457.072,119.452,404.168,119.452z M228.327,130.693h60.831v22.569v4.956h-60.831v-4.956V130.693z     M228.327,197.069v-20.66v-4.955h60.831v4.955v20.617V199h-60.831V197.069z M314.173,311.072l-41.545,57.774    c-12.4,16.111-23.533,0.514-23.533,0.514l-43.851-58.288l-28.275-37.564c-6.469-13.28,7.691-12.893,7.691-12.893h44.279v-43.443    v-1.974h60.348v1.952v43.465H334.8c0,0,10.845-0.215,7.423,11.434L314.173,311.072z" style="fill:#FFFFFF;"/></g></g><g id="Layer_1"/></svg>